<svg width="269" height="54" viewBox="0 0 269 54" fill="none" xmlns="http://www.w3.org/2000/svg" stroke="#FFFFFF"  class="fut" stroke-width=".01">
<path d="M0.0320001 53H-0.968V54H0.0320001V53ZM0.0320001 1.16V0.159996H-0.968V1.16H0.0320001ZM20.064 1.16H21.064V0.159996H20.064V1.16ZM20.064 6.344V7.344H21.064V6.344H20.064ZM7.264 6.344V5.344H6.264V6.344H7.264ZM7.264 23.624H6.264V24.624H7.264V23.624ZM17.184 23.624H18.184V22.624H17.184V23.624ZM17.184 28.744V29.744H18.184V28.744H17.184ZM7.264 28.744V27.744H6.264V28.744H7.264ZM7.264 53V54H8.264V53H7.264ZM1.032 53V1.16H-0.968V53H1.032ZM0.0320001 2.16H20.064V0.159996H0.0320001V2.16ZM19.064 1.16V6.344H21.064V1.16H19.064ZM20.064 5.344H7.264V7.344H20.064V5.344ZM6.264 6.344V23.624H8.264V6.344H6.264ZM7.264 24.624H17.184V22.624H7.264V24.624ZM16.184 23.624V28.744H18.184V23.624H16.184ZM17.184 27.744H7.264V29.744H17.184V27.744ZM6.264 28.744V53H8.264V28.744H6.264ZM7.264 52H0.0320001V54H7.264V52ZM29.768 51.336L29.1707 52.138L29.1707 52.138L29.768 51.336ZM25.672 45.064L24.7055 45.3207L24.7065 45.3245L25.672 45.064ZM24.584 1.16V0.159996H23.584V1.16H24.584ZM31.496 1.16H32.496V0.159996H31.496V1.16ZM33.864 46.28L33.1281 46.9571L33.1353 46.9649L33.1426 46.9725L33.864 46.28ZM42.952 46.28L43.6879 46.9571L43.6879 46.9571L42.952 46.28ZM45.32 1.16V0.159996H44.32V1.16H45.32ZM52.168 1.16H53.168V0.159996H52.168V1.16ZM51.08 45.064L52.0455 45.3245L52.0465 45.3207L51.08 45.064ZM46.984 51.336L46.3867 50.5339L46.3785 50.5402L46.984 51.336ZM38.408 52.576C34.766 52.576 32.1308 51.8487 30.3653 50.534L29.1707 52.138C31.4159 53.81 34.5406 54.576 38.408 54.576V52.576ZM30.3653 50.534C28.5605 49.19 27.3113 47.3008 26.6375 44.8035L24.7065 45.3245C25.4833 48.2032 26.9649 50.4954 29.1707 52.138L30.3653 50.534ZM26.6385 44.8073C25.9406 42.1801 25.584 39.0912 25.584 35.528H23.584C23.584 39.2182 23.9527 42.4865 24.7055 45.3207L26.6385 44.8073ZM25.584 35.528V1.16H23.584V35.528H25.584ZM24.584 2.16H31.496V0.159996H24.584V2.16ZM30.496 1.16V35.848H32.496V1.16H30.496ZM30.496 35.848C30.496 38.1105 30.6482 40.1919 30.957 42.0887L32.931 41.7673C32.6425 39.9948 32.496 38.0228 32.496 35.848H30.496ZM30.957 42.0887C31.2783 44.0622 31.9816 45.7109 33.1281 46.9571L34.5999 45.6029C33.7837 44.7158 33.2071 43.4631 32.931 41.7673L30.957 42.0887ZM33.1426 46.9725C34.4149 48.2978 36.2306 48.88 38.408 48.88V46.88C36.5747 46.88 35.3611 46.3955 34.5854 45.5875L33.1426 46.9725ZM38.408 48.88C40.6173 48.88 42.4497 48.3029 43.6879 46.9571L42.2161 45.6029C41.4916 46.3904 40.2947 46.88 38.408 46.88V48.88ZM43.6879 46.9571C44.8344 45.7109 45.5377 44.0622 45.859 42.0887L43.885 41.7673C43.6089 43.4631 43.0323 44.7158 42.2161 45.6029L43.6879 46.9571ZM45.859 42.0887C46.1678 40.1919 46.32 38.1105 46.32 35.848H44.32C44.32 38.0228 44.1735 39.9948 43.885 41.7673L45.859 42.0887ZM46.32 35.848V1.16H44.32V35.848H46.32ZM45.32 2.16H52.168V0.159996H45.32V2.16ZM51.168 1.16V35.528H53.168V1.16H51.168ZM51.168 35.528C51.168 39.0912 50.8114 42.1801 50.1135 44.8073L52.0465 45.3207C52.7993 42.4865 53.168 39.2182 53.168 35.528H51.168ZM50.1145 44.8035C49.4407 47.3008 48.1915 49.19 46.3867 50.534L47.5813 52.138C49.7871 50.4954 51.2687 48.2032 52.0455 45.3245L50.1145 44.8035ZM46.3785 50.5402C44.6598 51.8478 42.0521 52.576 38.408 52.576V54.576C42.2732 54.576 45.3828 53.8108 47.5895 52.1318L46.3785 50.5402ZM65.478 53H64.478V54H65.478V53ZM65.478 6.536H66.478V5.536H65.478V6.536ZM56.71 6.536H55.71V7.536H56.71V6.536ZM56.71 1.16V0.159996H55.71V1.16H56.71ZM81.222 1.16H82.222V0.159996H81.222V1.16ZM81.222 6.536V7.536H82.222V6.536H81.222ZM72.71 6.536V5.536H71.71V6.536H72.71ZM72.71 53V54H73.71V53H72.71ZM66.478 53V6.536H64.478V53H66.478ZM65.478 5.536H56.71V7.536H65.478V5.536ZM57.71 6.536V1.16H55.71V6.536H57.71ZM56.71 2.16H81.222V0.159996H56.71V2.16ZM80.222 1.16V6.536H82.222V1.16H80.222ZM81.222 5.536H72.71V7.536H81.222V5.536ZM71.71 6.536V53H73.71V6.536H71.71ZM72.71 52H65.478V54H72.71V52ZM90.9555 51.336L90.3582 52.138L90.3582 52.138L90.9555 51.336ZM86.8595 45.064L85.893 45.3207L85.894 45.3245L86.8595 45.064ZM85.7715 1.16V0.159996H84.7715V1.16H85.7715ZM92.6835 1.16H93.6835V0.159996H92.6835V1.16ZM95.0515 46.28L94.3156 46.9571L94.3228 46.9649L94.3301 46.9725L95.0515 46.28ZM104.14 46.28L104.875 46.9571L104.875 46.9571L104.14 46.28ZM106.508 1.16V0.159996H105.508V1.16H106.508ZM113.356 1.16H114.356V0.159996H113.356V1.16ZM112.268 45.064L113.233 45.3245L113.234 45.3207L112.268 45.064ZM108.172 51.336L107.574 50.5339L107.566 50.5402L108.172 51.336ZM99.5955 52.576C95.9535 52.576 93.3183 51.8487 91.5528 50.534L90.3582 52.138C92.6034 53.81 95.7281 54.576 99.5955 54.576V52.576ZM91.5528 50.534C89.748 49.19 88.4988 47.3008 87.825 44.8035L85.894 45.3245C86.6708 48.2032 88.1524 50.4954 90.3582 52.138L91.5528 50.534ZM87.826 44.8073C87.1281 42.1801 86.7715 39.0912 86.7715 35.528H84.7715C84.7715 39.2182 85.1402 42.4865 85.893 45.3207L87.826 44.8073ZM86.7715 35.528V1.16H84.7715V35.528H86.7715ZM85.7715 2.16H92.6835V0.159996H85.7715V2.16ZM91.6835 1.16V35.848H93.6835V1.16H91.6835ZM91.6835 35.848C91.6835 38.1105 91.8357 40.1919 92.1445 42.0887L94.1185 41.7673C93.83 39.9948 93.6835 38.0228 93.6835 35.848H91.6835ZM92.1445 42.0887C92.4658 44.0622 93.1691 45.7109 94.3156 46.9571L95.7874 45.6029C94.9712 44.7158 94.3946 43.4631 94.1185 41.7673L92.1445 42.0887ZM94.3301 46.9725C95.6024 48.2978 97.4181 48.88 99.5955 48.88V46.88C97.7622 46.88 96.5486 46.3955 95.7729 45.5875L94.3301 46.9725ZM99.5955 48.88C101.805 48.88 103.637 48.3029 104.875 46.9571L103.404 45.6029C102.679 46.3904 101.482 46.88 99.5955 46.88V48.88ZM104.875 46.9571C106.022 45.7109 106.725 44.0622 107.047 42.0887L105.072 41.7673C104.796 43.4631 104.22 44.7158 103.404 45.6029L104.875 46.9571ZM107.047 42.0887C107.355 40.1919 107.508 38.1105 107.508 35.848H105.508C105.508 38.0228 105.361 39.9948 105.072 41.7673L107.047 42.0887ZM107.508 35.848V1.16H105.508V35.848H107.508ZM106.508 2.16H113.356V0.159996H106.508V2.16ZM112.356 1.16V35.528H114.356V1.16H112.356ZM112.356 35.528C112.356 39.0912 111.999 42.1801 111.301 44.8073L113.234 45.3207C113.987 42.4865 114.356 39.2182 114.356 35.528H112.356ZM111.302 44.8035C110.628 47.3008 109.379 49.19 107.574 50.534L108.769 52.138C110.975 50.4954 112.456 48.2032 113.233 45.3245L111.302 44.8035ZM107.566 50.5402C105.847 51.8478 103.24 52.576 99.5955 52.576V54.576C103.461 54.576 106.57 53.8108 108.777 52.1318L107.566 50.5402ZM120.97 53H119.97V54H120.97V53ZM120.97 1.16V0.159996H119.97V1.16H120.97ZM139.978 2.568L139.594 3.49159L139.602 3.49469L139.609 3.49768L139.978 2.568ZM144.97 6.984L144.083 7.44593L144.088 7.45707L144.094 7.46806L144.97 6.984ZM145.994 20.424L146.961 20.6785L146.962 20.6724L145.994 20.424ZM143.946 24.584L144.709 25.2299L144.715 25.2229L144.721 25.2157L143.946 24.584ZM140.234 27.016L139.917 26.0673L139.011 26.3694L139.271 27.2885L140.234 27.016ZM147.594 53V54H148.916L148.556 52.7275L147.594 53ZM140.618 53L139.654 53.2687L139.858 54H140.618V53ZM133.833 28.68L134.797 28.4113L134.593 27.68H133.833V28.68ZM128.202 28.68V27.68H127.202V28.68H128.202ZM128.202 53V54H129.202V53H128.202ZM128.202 23.496H127.202V24.496H128.202V23.496ZM138.762 20.104L139.662 20.5387L139.662 20.5387L138.762 20.104ZM137.994 8.392L137.217 9.02259L137.222 9.02864L137.227 9.03461L137.994 8.392ZM128.202 6.344V5.344H127.202V6.344H128.202ZM121.97 53V1.16H119.97V53H121.97ZM120.97 2.16H131.402V0.159996H120.97V2.16ZM131.402 2.16C134.776 2.16 137.493 2.61957 139.594 3.49159L140.361 1.64441C137.939 0.639089 134.939 0.159996 131.402 0.159996V2.16ZM139.609 3.49768C141.66 4.31029 143.133 5.62316 144.083 7.44593L145.856 6.52206C144.672 4.24884 142.818 2.61771 140.346 1.63832L139.609 3.49768ZM144.094 7.46806C145.094 9.27479 145.634 11.7351 145.634 14.92H147.634C147.634 11.5342 147.064 8.70387 145.845 6.49994L144.094 7.46806ZM145.634 14.92C145.634 16.8552 145.428 18.605 145.025 20.1756L146.962 20.6724C147.413 18.915 147.634 16.9955 147.634 14.92H145.634ZM145.026 20.1695C144.631 21.6706 144.008 22.9243 143.17 23.9523L144.721 25.2157C145.76 23.9397 146.502 22.4201 146.961 20.6785L145.026 20.1695ZM143.182 23.9381C142.375 24.8918 141.3 25.6065 139.917 26.0673L140.55 27.9647C142.239 27.4015 143.639 26.4949 144.709 25.2299L143.182 23.9381ZM139.271 27.2885L146.631 53.2725L148.556 52.7275L141.196 26.7435L139.271 27.2885ZM147.594 52H140.618V54H147.594V52ZM141.581 52.7313L134.797 28.4113L132.87 28.9487L139.654 53.2687L141.581 52.7313ZM133.833 27.68H128.202V29.68H133.833V27.68ZM127.202 28.68V53H129.202V28.68H127.202ZM128.202 52H120.97V54H128.202V52ZM128.202 24.496H130.954V22.496H128.202V24.496ZM130.954 24.496C133.073 24.496 134.876 24.2328 136.317 23.6565L135.574 21.7995C134.455 22.2472 132.93 22.496 130.954 22.496V24.496ZM136.317 23.6565C137.828 23.0521 138.956 22.0018 139.662 20.5387L137.861 19.6693C137.373 20.6809 136.623 21.3799 135.574 21.7995L136.317 23.6565ZM139.662 20.5387C140.353 19.1075 140.658 17.2071 140.658 14.92H138.658C138.658 17.0702 138.365 18.6259 137.861 19.6693L139.662 20.5387ZM140.658 14.92C140.658 11.8156 140.098 9.34523 138.76 7.74939L137.227 9.03461C138.108 10.0841 138.658 11.9657 138.658 14.92H140.658ZM138.77 7.76141C137.358 6.0236 134.746 5.344 131.402 5.344V7.344C134.628 7.344 136.411 8.02973 137.217 9.02259L138.77 7.76141ZM131.402 5.344H128.202V7.344H131.402V5.344ZM127.202 6.344V23.496H129.202V6.344H127.202ZM154.541 53H153.541V54H154.541V53ZM154.541 1.16V0.159996H153.541V1.16H154.541ZM161.645 1.16H162.645V0.159996H161.645V1.16ZM161.645 53V54H162.645V53H161.645ZM155.541 53V1.16H153.541V53H155.541ZM154.541 2.16H161.645V0.159996H154.541V2.16ZM160.645 1.16V53H162.645V1.16H160.645ZM161.645 52H154.541V54H161.645V52ZM174.768 51.656L174.222 52.4937L174.23 52.4989L174.768 51.656ZM170.288 46.344L169.377 46.7565L169.377 46.7565L170.288 46.344ZM168.496 38.472L168.235 37.5066L167.451 37.7183L167.498 38.529L168.496 38.472ZM174.896 36.744L175.894 36.6744L175.809 35.4617L174.635 35.7786L174.896 36.744ZM175.728 42.056L174.758 42.2985L174.761 42.3099L174.764 42.3212L175.728 42.056ZM177.968 46.28L177.233 46.9583L177.24 46.9655L177.247 46.9725L177.968 46.28ZM186.48 46.344L185.744 45.6669L185.743 45.6683L186.48 46.344ZM186.352 36.168L185.546 36.7604L185.551 36.7662L185.555 36.7719L186.352 36.168ZM182.32 31.816L182.987 31.0707L182.982 31.0662L182.32 31.816ZM173.616 24.136L174.278 23.3862L174.275 23.3834L173.616 24.136ZM169.84 19.272L168.929 19.6842L168.933 19.6925L169.84 19.272ZM171.888 3.848L172.581 4.5691L172.581 4.5691L171.888 3.848ZM186.16 1.544L185.82 2.48455L185.836 2.49014L185.851 2.49522L186.16 1.544ZM190.064 3.976L189.329 4.65428L189.336 4.66176L189.343 4.66911L190.064 3.976ZM192.56 8.2L191.616 8.53035L191.621 8.54474L191.627 8.55898L192.56 8.2ZM193.84 14.088L194.101 15.0532L194.915 14.833L194.836 13.9941L193.84 14.088ZM187.696 15.752L186.699 15.8268L186.789 17.0336L187.957 16.7172L187.696 15.752ZM186.928 11.08L185.961 11.3359L185.963 11.3431L186.928 11.08ZM184.88 7.624L184.19 8.34735L184.206 8.36338L184.224 8.3786L184.88 7.624ZM176.56 7.752L177.251 8.47464L177.252 8.47399L176.56 7.752ZM175.856 15.88L174.962 16.3272L174.969 16.3419L174.977 16.3563L175.856 15.88ZM178.48 19.016L177.814 19.762L177.821 19.7682L178.48 19.016ZM187.248 26.696L186.589 27.4482L186.592 27.4506L187.248 26.696ZM192.432 32.84L191.584 33.37L191.588 33.3769L192.432 32.84ZM193.072 47.88L193.937 48.3826L193.941 48.374L193.072 47.88ZM188.656 52.104L188.193 51.2177L188.184 51.2222L188.656 52.104ZM182.256 52.576C179.411 52.576 177.114 51.9672 175.306 50.8131L174.23 52.4989C176.433 53.9048 179.127 54.576 182.256 54.576V52.576ZM175.314 50.8184C173.521 49.6488 172.149 48.0301 171.199 45.9315L169.377 46.7565C170.475 49.1806 172.09 51.1032 174.222 52.4936L175.314 50.8184ZM171.199 45.9315C170.235 43.8027 169.659 41.3033 169.494 38.4149L167.498 38.529C167.674 41.614 168.293 44.3627 169.377 46.7565L171.199 45.9315ZM168.757 39.4374L175.157 37.7094L174.635 35.7786L168.235 37.5066L168.757 39.4374ZM173.898 36.8136C174.03 38.704 174.316 40.5326 174.758 42.2985L176.698 41.8135C176.286 40.166 176.018 38.4534 175.894 36.6744L173.898 36.8136ZM174.764 42.3212C175.268 44.1553 176.084 45.7129 177.233 46.9583L178.703 45.6017C177.804 44.6285 177.126 43.37 176.692 41.7908L174.764 42.3212ZM177.247 46.9725C178.503 48.2809 180.219 48.88 182.256 48.88V46.88C180.624 46.88 179.481 46.4124 178.689 45.5875L177.247 46.9725ZM182.256 48.88C184.311 48.88 186.029 48.3155 187.217 47.0197L185.743 45.6683C185.053 46.4205 183.956 46.88 182.256 46.88V48.88ZM187.216 47.0211C188.42 45.7128 188.952 43.9234 188.952 41.8H186.952C186.952 43.602 186.503 44.8419 185.744 45.6669L187.216 47.0211ZM188.952 41.8C188.952 39.3066 188.385 37.1953 187.149 35.5641L185.555 36.7719C186.453 37.9567 186.952 39.6001 186.952 41.8H188.952ZM187.158 35.5756C186.043 34.0593 184.649 32.5583 182.987 31.0708L181.653 32.5612C183.233 33.975 184.528 35.3754 185.546 36.7604L187.158 35.5756ZM182.982 31.0662L174.278 23.3862L172.954 24.8858L181.658 32.5658L182.982 31.0662ZM174.275 23.3834C172.655 21.9661 171.49 20.4536 170.747 18.8515L168.933 19.6925C169.812 21.5891 171.164 23.3192 172.957 24.8886L174.275 23.3834ZM170.751 18.8598C170.015 17.232 169.624 15.1843 169.624 12.68H167.624C167.624 15.3811 168.044 17.728 168.929 19.6842L170.751 18.8598ZM169.624 12.68C169.624 9.08023 170.649 6.42513 172.581 4.5691L171.195 3.12689C168.775 5.4522 167.624 8.6851 167.624 12.68H169.624ZM172.581 4.5691C174.528 2.6986 177.221 1.712 180.784 1.712V-0.288002C176.837 -0.288002 173.6 0.816059 171.195 3.1269L172.581 4.5691ZM180.784 1.712C182.744 1.712 184.417 1.97777 185.82 2.48455L186.5 0.603445C184.831 0.000888766 182.92 -0.288002 180.784 -0.288002V1.712ZM185.851 2.49522C187.284 2.95969 188.433 3.68321 189.329 4.65428L190.799 3.29772C189.647 2.05011 188.194 1.1523 186.469 0.592776L185.851 2.49522ZM189.343 4.66911C190.294 5.65839 191.058 6.93573 191.616 8.53035L193.504 7.86965C192.867 6.05093 191.967 4.51227 190.785 3.28289L189.343 4.66911ZM191.627 8.55898C192.226 10.1183 192.637 11.9878 192.844 14.1819L194.836 13.9941C194.616 11.6655 194.174 9.60967 193.493 7.84102L191.627 8.55898ZM193.579 13.1228L187.435 14.7868L187.957 16.7172L194.101 15.0532L193.579 13.1228ZM188.693 15.6772C188.561 13.9175 188.296 12.2959 187.893 10.8169L185.963 11.3431C186.328 12.6801 186.575 14.1732 186.699 15.8268L188.693 15.6772ZM187.895 10.8241C187.468 9.21052 186.691 7.8735 185.536 6.86939L184.224 8.3786C185.032 9.08116 185.62 10.0481 185.961 11.3359L187.895 10.8241ZM185.57 6.90064C184.385 5.7687 182.734 5.28 180.784 5.28V7.28C182.418 7.28 183.498 7.6873 184.19 8.34735L185.57 6.90064ZM180.784 5.28C178.805 5.28 177.124 5.82652 175.868 7.03001L177.252 8.47399C178.044 7.71481 179.179 7.28 180.784 7.28V5.28ZM175.869 7.02936C174.624 8.21976 174.088 9.93291 174.088 11.976H176.088C176.088 10.2644 176.533 9.16157 177.251 8.47464L175.869 7.02936ZM174.088 11.976C174.088 13.6543 174.359 15.122 174.962 16.3272L176.75 15.4328C176.329 14.59 176.088 13.455 176.088 11.976H174.088ZM174.977 16.3563C175.603 17.512 176.563 18.6452 177.814 19.7619L179.146 18.2701C178.007 17.2535 177.219 16.296 176.735 15.4037L174.977 16.3563ZM177.821 19.7682L186.589 27.4482L187.907 25.9438L179.139 18.2638L177.821 19.7682ZM186.592 27.4506C188.474 29.0871 190.139 31.0577 191.584 33.37L193.28 32.31C191.739 29.8437 189.948 27.7182 187.904 25.9414L186.592 27.4506ZM191.588 33.3769C192.964 35.538 193.672 38.1394 193.672 41.224H195.672C195.672 37.8233 194.887 34.8354 193.276 32.3031L191.588 33.3769ZM193.672 41.224C193.672 43.6431 193.169 45.685 192.203 47.386L193.941 48.374C195.108 46.3203 195.672 43.9249 195.672 41.224H193.672ZM192.207 47.3774C191.236 49.0492 189.902 50.324 188.193 51.2178L189.119 52.9902C191.164 51.9213 192.775 50.3801 193.937 48.3826L192.207 47.3774ZM188.184 51.2222C186.518 52.1138 184.551 52.576 182.256 52.576V54.576C184.825 54.576 187.125 54.0569 189.128 52.9858L188.184 51.2222ZM205.978 53H204.978V54H205.978V53ZM205.978 6.536H206.978V5.536H205.978V6.536ZM197.21 6.536H196.21V7.536H197.21V6.536ZM197.21 1.16V0.159996H196.21V1.16H197.21ZM221.722 1.16H222.722V0.159996H221.722V1.16ZM221.722 6.536V7.536H222.722V6.536H221.722ZM213.21 6.536V5.536H212.21V6.536H213.21ZM213.21 53V54H214.21V53H213.21ZM206.978 53V6.536H204.978V53H206.978ZM205.978 5.536H197.21V7.536H205.978V5.536ZM198.21 6.536V1.16H196.21V6.536H198.21ZM197.21 2.16H221.722V0.159996H197.21V2.16ZM220.722 1.16V6.536H222.722V1.16H220.722ZM221.722 5.536H213.21V7.536H221.722V5.536ZM212.21 6.536V53H214.21V6.536H212.21ZM213.21 52H205.978V54H213.21V52ZM227.104 53H226.104V54H227.104V53ZM227.104 1.16V0.159996H226.104V1.16H227.104ZM234.208 1.16H235.208V0.159996H234.208V1.16ZM234.208 53V54H235.208V53H234.208ZM228.104 53V1.16H226.104V53H228.104ZM227.104 2.16H234.208V0.159996H227.104V2.16ZM233.208 1.16V53H235.208V1.16H233.208ZM234.208 52H227.104V54H234.208V52ZM247.01 51.272L246.402 52.0659L246.411 52.072L247.01 51.272ZM242.786 45.064L241.827 45.347L241.83 45.3542L241.832 45.3614L242.786 45.064ZM242.786 8.904L241.832 8.60662L241.83 8.61378L241.827 8.62098L242.786 8.904ZM247.01 2.888L247.585 3.70642L247.589 3.70402L247.01 2.888ZM263.267 2.504L262.73 3.3477L262.738 3.35305L263.267 2.504ZM267.363 7.624L266.423 7.96719L266.426 7.97511L266.429 7.98298L267.363 7.624ZM268.643 19.72V20.72H269.643V19.72H268.643ZM261.795 19.72H260.795V20.72H261.795V19.72ZM261.475 11.016L260.481 11.1295L260.483 11.1456L260.485 11.1615L261.475 11.016ZM259.939 7.56L260.627 6.835L260.627 6.835L259.939 7.56ZM251.171 7.688L251.843 8.42794L251.852 8.41976L251.861 8.41135L251.171 7.688ZM249.315 11.4L248.331 11.2188L248.329 11.2294L248.327 11.2399L249.315 11.4ZM249.571 43.72L248.607 43.9877L248.609 43.9947L249.571 43.72ZM259.875 46.6L260.582 47.3071L260.59 47.2985L260.599 47.2897L259.875 46.6ZM261.795 33.736V32.736H260.795V33.736H261.795ZM268.643 33.736H269.643V32.736H268.643V33.736ZM267.491 45.96L268.443 46.266L268.444 46.2611L267.491 45.96ZM263.523 51.592L264.098 52.4095L264.105 52.4052L264.111 52.4007L263.523 51.592ZM255.587 52.576C252.043 52.576 249.425 51.8327 247.61 50.472L246.411 52.072C248.692 53.7833 251.791 54.576 255.587 54.576V52.576ZM247.619 50.4781C245.791 49.0779 244.496 47.1884 243.741 44.7666L241.832 45.3614C242.699 48.1449 244.22 50.3941 246.402 52.0659L247.619 50.4781ZM243.746 44.781C243.009 42.2849 242.635 39.4809 242.635 36.36H240.635C240.635 39.6391 241.028 42.6377 241.827 45.347L243.746 44.781ZM242.635 36.36V18.056H240.635V36.36H242.635ZM242.635 18.056C242.635 14.627 243.011 11.6757 243.746 9.18702L241.827 8.62098C241.026 11.3376 240.635 14.4877 240.635 18.056H242.635ZM243.741 9.20138C244.494 6.78456 245.781 4.97319 247.585 3.70641L246.436 2.06958C244.229 3.61881 242.7 5.81811 241.832 8.60662L243.741 9.20138ZM247.589 3.70402C249.406 2.41675 252.033 1.712 255.587 1.712V-0.288002C251.801 -0.288002 248.711 0.457911 246.432 2.07197L247.589 3.70402ZM255.587 1.712C258.721 1.712 261.07 2.29169 262.73 3.34766L263.803 1.66034C261.708 0.326975 258.937 -0.288002 255.587 -0.288002V1.712ZM262.738 3.35305C264.46 4.42419 265.686 5.94824 266.423 7.96719L268.302 7.2808C267.418 4.86242 265.913 2.97314 263.795 1.65494L262.738 3.35305ZM266.429 7.98298C267.227 10.0577 267.643 12.596 267.643 15.624H269.643C269.643 12.4227 269.205 9.62768 268.296 7.26502L266.429 7.98298ZM267.643 15.624V19.72H269.643V15.624H267.643ZM268.643 18.72H261.795V20.72H268.643V18.72ZM262.795 19.72V16.072H260.795V19.72H262.795ZM262.795 16.072C262.795 14.1173 262.686 12.3814 262.464 10.8705L260.485 11.1615C260.69 12.5519 260.795 14.1867 260.795 16.072H262.795ZM262.468 10.9025C262.278 9.24189 261.693 7.84792 260.627 6.835L259.25 8.285C259.89 8.89341 260.329 9.80344 260.481 11.1295L262.468 10.9025ZM260.627 6.835C259.494 5.75883 257.745 5.344 255.651 5.344V7.344C257.567 7.344 258.676 7.73984 259.25 8.285L260.627 6.835ZM255.651 5.344C253.488 5.344 251.687 5.81225 250.48 6.96464L251.861 8.41135C252.531 7.77175 253.717 7.344 255.651 7.344V5.344ZM250.498 6.94806C249.354 7.98748 248.657 9.44698 248.331 11.2188L250.298 11.5812C250.569 10.1104 251.109 9.09518 251.843 8.42794L250.498 6.94806ZM248.327 11.2399C248.061 12.8856 247.931 14.7976 247.931 16.968H249.931C249.931 14.8718 250.056 13.0717 250.302 11.5601L248.327 11.2399ZM247.931 16.968V37.512H249.931V16.968H247.931ZM247.931 37.512C247.931 40.1558 248.146 42.3271 248.607 43.9876L250.534 43.4524C250.142 42.0409 249.931 40.0736 249.931 37.512H247.931ZM248.609 43.9947C249.08 45.6431 249.895 46.9483 251.136 47.7576L252.229 46.0824C251.507 45.6117 250.914 44.7835 250.532 43.4453L248.609 43.9947ZM251.136 47.7576C252.335 48.5394 253.87 48.88 255.651 48.88V46.88C254.103 46.88 252.993 46.5806 252.229 46.0824L251.136 47.7576ZM255.651 48.88C257.72 48.88 259.452 48.4364 260.582 47.3071L259.167 45.8929C258.59 46.4703 257.507 46.88 255.651 46.88V48.88ZM260.599 47.2897C261.629 46.2074 262.23 44.7799 262.465 43.0896L260.484 42.8144C260.292 44.1961 259.826 45.2006 259.15 45.9103L260.599 47.2897ZM262.465 43.0896C262.686 41.4962 262.795 39.6564 262.795 37.576H260.795C260.795 39.5916 260.689 41.3358 260.484 42.8144L262.465 43.0896ZM262.795 37.576V33.736H260.795V37.576H262.795ZM261.795 34.736H268.643V32.736H261.795V34.736ZM267.643 33.736V37.576H269.643V33.736H267.643ZM267.643 37.576C267.643 40.6545 267.268 43.3442 266.537 45.6589L268.444 46.2611C269.249 43.7118 269.643 40.8122 269.643 37.576H267.643ZM266.538 45.654C265.83 47.8587 264.626 49.553 262.934 50.7833L264.111 52.4007C266.174 50.9004 267.615 48.8399 268.443 46.266L266.538 45.654ZM262.947 50.7745C261.302 51.9334 258.889 52.576 255.587 52.576V54.576C259.111 54.576 261.989 53.8959 264.098 52.4095L262.947 50.7745Z" fill="white"/>
</svg>
