<?xml version="1.0" encoding="UTF-8"?>
<svg fill="none" stroke="#FB4627" stroke-width=".01" viewBox="0 0 363 62" xmlns="http://www.w3.org/2000/svg">
<g filter="url(#a)">
<path d="m13.728 53h-2v2h2v-2zm0-46.464h2v-2h-2v2zm-8.768 0h-2v2h2v-2zm0-5.376v-2h-2v2h2zm24.512 0h2v-2h-2v2zm0 5.376v2h2v-2h-2zm-8.512 0v-2h-2v2h2zm0 46.464v2h2v-2h-2zm-5.232 0v-46.464h-4v46.464h4zm-2-48.464h-8.768v4h8.768v-4zm-6.768 2v-5.376h-4v5.376h4zm-2-3.376h24.512v-4h-24.512v4zm22.512-2v5.376h4v-5.376h-4zm2 3.376h-8.512v4h8.512v-4zm-10.512 2v46.464h4v-46.464h-4zm2 44.464h-7.232v4h7.232v-4zm13.51 2h-2v2h2v-2zm0-51.84v-2h-2v2h2zm20.096 0h2v-2h-2v2zm0 5.376v2h2v-2h-2zm-12.864 0v-2h-2v2h2zm0 17.152h-2v2h2v-2zm10.432 0h2v-2h-2v2zm0 5.12v2h2v-2h-2zm-10.432 0v-2h-2v2h2zm0 19.008h-2v2h2v-2zm12.992 0h2v-2h-2v2zm0 5.184v2h2v-2h-2zm-18.224 0v-51.84h-4v51.84h4zm-2-49.84h20.096v-4h-20.096v4zm18.096-2v5.376h4v-5.376h-4zm2 3.376h-12.864v4h12.864v-4zm-14.864 2v17.152h4v-17.152h-4zm2 19.152h10.432v-4h-10.432v4zm8.432-2v5.12h4v-5.12h-4zm2 3.12h-10.432v4h10.432v-4zm-12.432 2v19.008h4v-19.008h-4zm2 21.008h12.992v-4h-12.992v4zm10.992-2v5.184h4v-5.184h-4zm2 3.184h-20.224v4h20.224v-4zm10.254 0.272-1.2162 1.5878 0.0162 0.0122 1.2-1.6zm-4.224-6.208-1.9182 0.566 0.0042 0.0144 0.0045 0.0144 1.9095-0.5948zm0-36.16-1.9095-0.59477-0.0045 0.01434-0.0042 0.01439 1.9182 0.56604zm4.224-6.016 1.1493 1.6368 0.0067-0.00479-1.156-1.632zm16.256-0.384-1.0738 1.6873 0.0086 0.00544 0.0086 0.00535 1.0566-1.6981zm4.096 5.12-1.8785 0.68638 0.0058 0.01584 6e-3 0.01573 1.8667-0.71795zm1.28 12.096v2h2v-2h-2zm-6.848 0h-2v2h2v-2zm-0.32-8.704-1.9871 0.2271 0.0037 0.032 0.0047 0.0319 1.9787-0.291zm-1.536-3.456 1.3775-1.45-1.3775 1.45zm-8.768 0.128 1.3453 1.4799 0.0181-0.01637 0.0176-0.0168-1.381-1.4467zm-1.856 3.712-1.9669-0.3623-0.0039 0.021-0.0034 0.0212 1.9742 0.3201zm0.256 32.32-1.927 0.5353 0.0019 0.0071 0.0021 7e-3 1.923-0.5494zm10.304 2.88 1.4142 1.4142 0.0173-0.0172 0.0168-0.0177-1.4483-1.3793zm1.92-12.864v-2h-2v2h2zm6.848 0h2v-2h-2v2zm-1.152 12.224 1.9041 0.612 0.0031-0.0097-1.9072-0.6023zm-3.968 5.632 1.1519 1.635 0.0123-0.0087 0.0121-0.0088-1.1763-1.6175zm-7.936-0.016c-3.418 0-5.7956-0.7187-7.376-1.904l-2.4 3.2c2.5156 1.8867 5.8553 2.704 9.776 2.704v-4zm-7.3598-1.8918c-1.6508-1.2644-2.8327-2.9741-3.5307-5.215l-3.819 1.1896c0.9233 2.9644 2.5575 5.3934 4.9173 7.201l2.4324-3.1756zm-3.522-5.1862c-0.7051-2.3895-1.0702-5.0963-1.0702-8.138h-4c0 3.3583 0.4029 6.4541 1.2338 9.27l3.8364-1.132zm-1.0702-8.138v-18.304h-4v18.304h4zm0-18.304c0-3.3593 0.3695-6.2113 1.0702-8.586l-3.8364-1.1321c-0.8353 2.8306-1.2338 6.08-1.2338 9.718h4zm1.0615-8.5572c0.6949-2.231 1.8607-3.8484 3.4638-4.974l-2.2986-3.2736c-2.4076 1.6904-4.0578 4.0837-4.9842 7.0581l3.819 1.1895zm3.4705-4.9787c1.5867-1.1239 3.9823-1.808 7.42-1.808v-4c-3.901 0-7.2227 0.76649-9.732 2.544l2.312 3.2641zm7.42-1.808c3.0265 0 5.1648 0.56204 6.6062 1.4793l2.1476-3.3746c-2.3133-1.4721-5.295-2.1047-8.7538-2.1047v4zm6.6234 1.4901c1.5229 0.9476 2.6094 2.289 3.2741 4.1083l3.757-1.3728c-0.9566-2.6181-2.6008-4.69-4.9179-6.1317l-2.1132 3.3962zm3.2859 4.1398c0.7426 1.9306 1.1467 4.3408 1.1467 7.282h4c0-3.288-0.4492-6.2113-1.4133-8.718l-3.7334 1.4359zm1.1467 7.282v4.096h4v-4.096h-4zm2 2.096h-6.848v4h6.848v-4zm-4.848 2v-3.648h-4v3.648h4zm0-3.648c0-1.9894-0.1102-3.7758-0.3413-5.347l-3.9574 0.582c0.1956 1.3301 0.2987 2.9144 0.2987 4.765h4zm-0.3329-5.2831c-0.2089-1.8278-0.8665-3.4637-2.1456-4.6789l-2.755 2.9c0.4275 0.40615 0.794 1.0742 0.9264 2.2331l3.9742-0.4542zm-2.1456-4.6789c-1.4123-1.3417-3.4828-1.766-5.6655-1.766v4c1.828 0 2.6161 0.38634 2.9105 0.666l2.755-2.9zm-5.6655-1.766c-2.2765 0-4.3851 0.4885-5.861 1.8973l2.762 2.8934c0.4014-0.38321 1.2795-0.79071 3.099-0.79071v-4zm-5.8253 1.8641c-1.3481 1.2255-2.1235 2.9072-2.4776 4.8296l3.9338 0.7246c0.2432-1.3203 0.7052-2.1133 1.2344-2.5944l-2.6906-2.9598zm-2.4849 4.8718c-0.2778 1.7127-0.4098 3.6806-0.4098 5.8881h4c0-2.0591 0.124-3.8033 0.3582-5.2479l-3.9484-0.6402zm-0.4098 5.8881v20.544h4v-20.544h-4zm0 20.544c0 2.6849 0.2171 4.9583 0.713 6.7433l3.854-1.0706c-0.3575-1.287-0.567-3.1523-0.567-5.6727h-4zm0.717 6.7574c0.5152 1.8035 1.442 3.3473 2.9425 4.3258l2.185-3.3504c-0.4622-0.3015-0.9434-0.891-1.2815-2.0742l-3.846 1.0988zm2.9425 4.3258c1.416 0.9235 3.1644 1.2848 5.0605 1.2848v-4c-1.4319 0-2.3288-0.2787-2.8755-0.6352l-2.185 3.3504zm5.0605 1.2848c2.1756 0 4.233-0.4606 5.6382-1.8658l-2.8284-2.8284c-0.3015 0.3015-1.0601 0.6942-2.8098 0.6942v4zm5.6723-1.9007c1.208-1.2685 1.8765-2.9074 2.1327-4.7522l-3.962-0.5502c-0.1704 1.2272-0.5687 2.0203-1.0673 2.5438l2.8966 2.7586zm2.1327-4.7522c0.2292-1.6507 0.339-3.5383 0.339-5.6511h-4c0 1.9832-0.1036 3.6796-0.301 5.1009l3.962 0.5502zm0.339-5.6511v-3.84h-4v3.84h4zm-2-1.84h6.848v-4h-6.848v4zm4.848-2v3.84h4v-3.84h-4zm0 3.84c0 2.9996-0.3653 5.5845-1.0592 7.7817l3.8144 1.2046c0.8421-2.6668 1.2448-5.6712 1.2448-8.9863h-4zm-1.0561 7.772c-0.6493 2.0201-1.7343 3.5313-3.2402 4.6265l2.3526 3.235c2.2488-1.6355 3.8091-3.879 4.6958-6.6375l-3.8082-1.224zm-3.2158 4.609c-1.4125 0.9952-3.5932 1.619-6.7841 1.619v4c3.6358 0 6.7458-0.6989 9.0879-2.349l-2.3038-3.27zm13.161 3.043h-2v2h2v-2zm0-51.84v-2h-2v2h2zm7.2325 0h2v-2h-2v2zm0 22.4h-2.0005v2h2.0005v-2zm13.312 0v2h2v-2h-2zm0-22.4v-2h-2v2h2zm7.232 0h2v-2h-2v2zm0 51.84v2h2v-2h-2zm-7.232 0h-2v2h2v-2zm0-24.256h2v-2h-2v2zm-13.312 0v-2h-2.0005v2h2.0005zm0 24.256v2h2v-2h-2zm-5.2325 0v-51.84h-4v51.84h4zm-2-49.84h7.2325v-4h-7.2325v4zm5.232-2v22.4h4.0005v-22.4h-4.0005zm2.0005 24.4h13.312v-4h-13.312v4zm15.312-2v-22.4h-4v22.4h4zm-2-20.4h7.232v-4h-7.232v4zm5.232-2v51.84h4v-51.84h-4zm2 49.84h-7.232v4h7.232v-4zm-5.232 2v-24.256h-4v24.256h4zm-2-26.256h-13.312v4h13.312v-4zm-15.312 2v24.256h4.0005v-24.256h-4.0005zm2.0005 22.256h-7.2325v4h7.2325v-4zm28.643 2h-2v2h2v-2zm0-51.84v-2h-2v2h2zm4.928 0 1.838-0.78619-0.518-1.2138h-1.32v2zm14.72 34.432-1.839 0.7862 3.839-0.7862h-2zm0-34.432v-2h-2v2h2zm6.016 0h2v-2h-2v2zm0 51.84v2h2v-2h-2zm-4.608 0-1.844 0.7766 0.516 1.2234h1.328v-2zm-14.912-35.392 1.843-0.7766-3.843 0.7766h2zm0 35.392v2h2v-2h-2zm-4.144 0v-51.84h-4v51.84h4zm-2-49.84h4.928v-4h-4.928v4zm3.089-1.2138 14.72 34.432 3.677-1.5724-14.72-34.432-3.677 1.5724zm18.559 33.646v-34.432h-4v34.432h4zm-2-32.432h6.016v-4h-6.016v4zm4.016-2v51.84h4v-51.84h-4zm2 49.84h-4.608v4h4.608v-4zm-2.765 1.2234-14.912-35.392-3.687 1.5532 14.912 35.392 3.687-1.5532zm-18.755-34.615v35.392h4v-35.392h-4zm2 33.392h-6.144v4h6.144v-4zm32.532 0.528 1.094-1.6745-1.094 1.6745zm-4.48-5.824-1.888 0.6607 4e-3 0.0099 1.884-0.6706zm0-37.376-1.87-0.70931-3e-3 0.00893-4e-3 0.00897 1.877 0.69141zm4.48-5.632 1.06 1.696 9e-3 -0.00586-1.069-1.6902zm16.704 0-1.085 1.6801 1.085-1.6801zm4.416 5.632-1.877 0.69141 6e-3 0.01441 5e-3 0.01433 1.866-0.72015zm0 37.312-1.874-0.6988-0.01 0.0282 1.884 0.6706zm-4.416 5.888 1.109 1.6641 0.012-0.0079 0.012-0.0081-1.133-1.6481zm-3.968-4.8 1.233 1.575 0.02-0.0163 0.021-0.0168-1.274-1.5419zm1.984-3.328 1.944 0.4712 3e-3 -0.0131-1.947-0.4581zm0-32.704-1.944 0.4712 2e-3 0.0069 2e-3 7e-3 1.94-0.4851zm-1.984-3.2-1.233 1.575 0.022 0.01697 0.022 0.01637 1.189-1.6084zm-8.768 0 1.189 1.6084 0.011-0.00839-1.2-1.6zm-1.984 3.2 1.94 0.4851 2e-3 -7e-3 2e-3 -0.0069-1.944-0.4712zm0 32.704-1.947 0.4581 3e-3 0.0131 1.944-0.4712zm1.984 3.328-1.274 1.5419 0.036 0.0299 0.038 0.0282 1.2-1.6zm4.416 4.848c-3.26 0-5.631-0.6388-7.29-1.7225l-2.188 3.349c2.522 1.647 5.741 2.3735 9.478 2.3735v-4zm-7.29-1.7225c-1.698-1.1089-2.93-2.6841-3.69-4.8201l-3.768 1.3412c1.032 2.8987 2.787 5.2062 5.27 6.8279l2.188-3.349zm-3.686-4.8102c-0.806-2.3008-1.232-5.0553-1.232-8.2993h-4c0 3.5827 0.47 6.8015 1.456 9.6207l3.776-1.3214zm-1.232-8.2993v-19.648h-4v19.648h4zm0-19.648c0-3.248 0.428-5.9237 1.221-8.0766l-3.754-1.3828c-0.999 2.7111-1.467 5.8807-1.467 9.4594h4zm1.214-8.0587c0.799-2.1076 2.028-3.6194 3.67-4.6453l-2.12-3.392c-2.454 1.534-4.212 3.7769-5.29 6.6187l3.74 1.4186zm3.679-4.6512c1.665-1.0529 4.045-1.6742 7.315-1.6742v-4c-3.728 0-6.936 0.70139-9.453 2.2938l2.138 3.3803zm7.315-1.6742c3.273 0 5.622 0.62251 7.235 1.6641l2.17-3.3602c-2.483-1.6038-5.681-2.3039-9.405-2.3039v4zm7.235 1.6641c1.66 1.0722 2.868 2.5906 3.624 4.6433l3.754-1.3828c-1.036-2.8113-2.772-5.0476-5.208-6.6207l-2.17 3.3602zm3.635 4.6721c0.827 2.1434 1.274 4.8086 1.274 8.0478h4c0-3.5874-0.492-6.7675-1.542-9.4882l-3.732 1.4403zm1.274 8.0478v19.712h4v-19.712h-4zm0 19.712c0 3.1904-0.445 5.8882-1.282 8.1332l3.748 1.3976c1.04-2.7897 1.534-5.9799 1.534-9.5308h-4zm-1.292 8.1614c-0.766 2.152-1.991 3.7594-3.665 4.9105l2.266 3.2962c2.422-1.6649 4.141-3.9829 5.167-6.8655l-3.768-1.3412zm-3.641 4.8945c-1.608 1.0721-3.948 1.7121-7.211 1.7121v4c3.734 0 6.941-0.7253 9.429-2.3839l-2.218-3.3282zm-7.211 0.0161c2.138 0 4.106-0.4199 5.585-1.577l-2.466-3.15c-0.484 0.3789-1.417 0.727-3.119 0.727v4zm5.626-1.6101c1.359-1.1231 2.225-2.6314 2.654-4.3987l-3.888-0.9424c-0.254 1.0487-0.711 1.759-1.314 2.2573l2.548 3.0838zm2.657-4.4118c0.385-1.6366 0.565-3.4816 0.565-5.5141h-4c0 1.8075-0.161 3.3332-0.459 4.5979l3.894 0.9162zm0.565-5.5141v-22.72h-4v22.72h4zm0-22.72c0-2.0286-0.179-3.8435-0.572-5.4131l-3.88 0.9702c0.29 1.161 0.452 2.6315 0.452 4.4429h4zm-0.568-5.3992c-0.43-1.7745-1.313-3.2829-2.739-4.3372l-2.378 3.2167c0.537 0.3964 0.977 1.0214 1.229 2.0628l3.888-0.9424zm-2.695-4.3038c-1.479-1.1571-3.447-1.577-5.585-1.577v4c1.702 0 2.635 0.34809 3.119 0.72701l2.466-3.15zm-5.585-1.577c-2.147 0-4.111 0.42337-5.616 1.552l2.4 3.2c0.543-0.40738 1.523-0.752 3.216-0.752v-4zm-5.605 1.5436c-1.426 1.0543-2.309 2.5626-2.739 4.3372l3.888 0.9424c0.252-1.0415 0.692-1.6664 1.229-2.0628l-2.378-3.2167zm-2.735 4.3232c-0.393 1.5696-0.572 3.3845-0.572 5.4131h4c0-1.8114 0.162-3.2819 0.452-4.4429l-3.88-0.9702zm-0.572 5.4131v22.72h4v-22.72h-4zm0 22.72c0 2.0325 0.18 3.8775 0.565 5.5141l3.894-0.9162c-0.298-1.2647-0.459-2.7904-0.459-4.5979h-4zm0.568 5.5272c0.429 1.7673 1.295 3.2756 2.654 4.3987l2.548-3.0838c-0.603-0.4983-1.06-1.2086-1.314-2.2573l-3.888 0.9424zm2.728 4.4568c1.505 1.1286 3.469 1.552 5.616 1.552v-4c-1.693 0-2.673-0.3446-3.216-0.752l-2.4 3.2zm26.868 4.672h-2v2h2v-2zm0-51.84v-2h-2v2h2zm7.232 0h2v-2h-2v2zm0 46.656h-2v2h2v-2zm13.248 0h2v-2h-2v2zm0 5.184v2h2v-2h-2zm-18.48 0v-51.84h-4v51.84h4zm-2-49.84h7.232v-4h-7.232v4zm5.232-2v46.656h4v-46.656h-4zm2 48.656h13.248v-4h-13.248v4zm11.248-2v5.184h4v-5.184h-4zm2 3.184h-20.48v4h20.48v-4zm9.447 0.528 1.093-1.6745-1.093 1.6745zm-4.48-5.824-1.888 0.6607 3e-3 0.0099 1.885-0.6706zm0-37.376-1.87-0.70931-4e-3 0.00893-3e-3 0.00897 1.877 0.69141zm4.48-5.632 1.06 1.696 9e-3 -0.00586-1.069-1.6902zm16.704 0-1.086 1.6801 1.086-1.6801zm4.416 5.632-1.877 0.69141 5e-3 0.01441 6e-3 0.01433 1.866-0.72015zm0 37.312-1.874-0.6988-6e-3 0.0141-5e-3 0.0141 1.885 0.6706zm-4.416 5.888 1.109 1.6641 0.012-0.0079 0.012-0.0081-1.133-1.6481zm-3.968-4.8 1.232 1.575 0.021-0.0163 0.02-0.0168-1.273-1.5419zm1.984-3.328 1.943 0.4712 3e-3 -0.0131-1.946-0.4581zm0-32.704-1.944 0.4712 1e-3 0.0069 2e-3 7e-3 1.941-0.4851zm-1.984-3.2-1.233 1.575 0.022 0.01697 0.022 0.01637 1.189-1.6084zm-8.768 0 1.188 1.6084 0.012-0.00839-1.2-1.6zm-1.984 3.2 1.94 0.4851 2e-3 -7e-3 1e-3 -0.0069-1.943-0.4712zm0 32.704-1.947 0.4581 3e-3 0.0131 1.944-0.4712zm1.984 3.328-1.274 1.5419 0.036 0.0299 0.038 0.0282 1.2-1.6zm4.416 4.848c-3.26 0-5.631-0.6388-7.291-1.7225l-2.187 3.349c2.522 1.647 5.74 2.3735 9.478 2.3735v-4zm-7.291-1.7225c-1.698-1.1089-2.929-2.6841-3.689-4.8201l-3.769 1.3412c1.032 2.8987 2.788 5.2062 5.271 6.8279l2.187-3.349zm-3.686-4.8102c-0.805-2.3008-1.231-5.0553-1.231-8.2993h-4c0 3.5827 0.469 6.8015 1.456 9.6207l3.775-1.3214zm-1.231-8.2993v-19.648h-4v19.648h4zm0-19.648c0-3.248 0.427-5.9237 1.22-8.0766l-3.753-1.3828c-0.999 2.7111-1.467 5.8807-1.467 9.4594h4zm1.213-8.0587c0.8-2.1076 2.029-3.6194 3.67-4.6453l-2.119-3.392c-2.455 1.534-4.213 3.7769-5.29 6.6187l3.739 1.4186zm3.68-4.6512c1.664-1.0529 4.045-1.6742 7.315-1.6742v-4c-3.728 0-6.937 0.70139-9.454 2.2938l2.139 3.3803zm7.315-1.6742c3.273 0 5.622 0.62251 7.234 1.6641l2.171-3.3602c-2.484-1.6038-5.681-2.3039-9.405-2.3039v4zm7.234 1.6641c1.661 1.0722 2.869 2.5906 3.625 4.6433l3.753-1.3828c-1.036-2.8113-2.772-5.0476-5.207-6.6207l-2.171 3.3602zm3.636 4.6721c0.827 2.1434 1.274 4.8086 1.274 8.0478h4c0-3.5874-0.493-6.7675-1.543-9.4882l-3.731 1.4403zm1.274 8.0478v19.712h4v-19.712h-4zm0 19.712c0 3.1904-0.445 5.8882-1.282 8.1332l3.747 1.3976c1.041-2.7897 1.535-5.9799 1.535-9.5308h-4zm-1.293 8.1614c-0.766 2.152-1.99 3.7594-3.665 4.9105l2.267 3.2962c2.421-1.6649 4.141-3.9829 5.167-6.8655l-3.769-1.3412zm-3.641 4.8945c-1.608 1.0721-3.947 1.7121-7.21 1.7121v4c3.734 0 6.941-0.7253 9.429-2.3839l-2.219-3.3282zm-7.21 0.0161c2.138 0 4.106-0.4199 5.584-1.577l-2.465-3.15c-0.484 0.3789-1.418 0.727-3.119 0.727v4zm5.625-1.6101c1.36-1.1231 2.226-2.6314 2.654-4.3987l-3.887-0.9424c-0.254 1.0487-0.711 1.759-1.314 2.2573l2.547 3.0838zm2.657-4.4118c0.385-1.6366 0.566-3.4816 0.566-5.5141h-4c0 1.8075-0.162 3.3332-0.459 4.5979l3.893 0.9162zm0.566-5.5141v-22.72h-4v22.72h4zm0-22.72c0-2.0286-0.18-3.8435-0.572-5.4131l-3.881 0.9702c0.29 1.161 0.453 2.6315 0.453 4.4429h4zm-0.569-5.3992c-0.43-1.7745-1.312-3.2829-2.739-4.3372l-2.377 3.2167c0.536 0.3964 0.976 1.0214 1.229 2.0628l3.887-0.9424zm-2.695-4.3038c-1.478-1.1571-3.446-1.577-5.584-1.577v4c1.701 0 2.635 0.34809 3.119 0.72701l2.465-3.15zm-5.584-1.577c-2.148 0-4.112 0.42337-5.616 1.552l2.4 3.2c0.543-0.40738 1.523-0.752 3.216-0.752v-4zm-5.605 1.5436c-1.427 1.0543-2.309 2.5626-2.739 4.3372l3.887 0.9424c0.253-1.0415 0.693-1.6664 1.229-2.0628l-2.377-3.2167zm-2.736 4.3232c-0.392 1.5696-0.571 3.3845-0.571 5.4131h4c0-1.8114 0.162-3.2819 0.452-4.4429l-3.881-0.9702zm-0.571 5.4131v22.72h4v-22.72h-4zm0 22.72c0 2.0325 0.18 3.8775 0.565 5.5141l3.893-0.9162c-0.297-1.2647-0.458-2.7904-0.458-4.5979h-4zm0.568 5.5272c0.428 1.7673 1.294 3.2756 2.654 4.3987l2.547-3.0838c-0.603-0.4983-1.06-1.2086-1.314-2.2573l-3.887 0.9424zm2.728 4.4568c1.504 1.1286 3.468 1.552 5.616 1.552v-4c-1.693 0-2.673-0.3446-3.216-0.752l-2.4 3.2zm31.412 3.264-1.183 1.6128 0.02 0.0148 0.02 0.0142 1.143-1.6418zm-4.224-6.08-1.904 0.614 5e-3 0.0138 4e-3 0.0138 1.895-0.6416zm-0.129-36.544-1.914-0.57748-3e-3 0.00991-3e-3 0.00995 1.92 0.55762zm4.224-6.144-1.133-1.6481-8e-3 0.00559-8e-3 0.00567 1.149 1.6368zm16.321-0.448-0.985 1.7411 0.023 0.0126 0.022 0.01202 0.94-1.7657zm4.352 4.992-1.86 0.73674 5e-3 0.01218 1.855-0.74892zm1.344 10.368v2h2v-2h-2zm-6.784 0h-2v2h2v-2zm-0.448-7.104-1.959 0.4033 2e-3 0.0117 1.957-0.415zm-1.856-3.2-1.259 1.5545 0.04 0.03255 0.042 0.03043 1.177-1.6175zm-8.96 0.384-1.415-1.4142-0.015 0.01572-0.016 0.01605 1.446 1.3824zm-1.792 4.032-1.978-0.2967-4e-3 0.0212-2e-3 0.0212 1.984 0.2543zm0.192 31.104-1.96 0.4019 5e-3 0.024 6e-3 0.0238 1.949-0.4497zm10.816 3.584 1.317 1.5052-1.317-1.5052zm2.112-3.968 1.953 0.4288-1.953-0.4288zm0.576-10.112h2v-2h-2v2zm-6.592 0h-2v2h2v-2zm0-5.12v-2h-2v2h2zm13.12 0h2v-2h-2v2zm0 25.664v2h2v-2h-2zm-4.544 0-1.987 0.2349 0.209 1.7651h1.778v-2zm-0.704-5.952 1.986-0.2349-3.871-0.4351 1.885 0.67zm-3.2 4.736 1.297 1.5217-1.297-1.5217zm-6.016-0.144c-2.977 0-5.139-0.6276-6.666-1.6898l-2.285 3.2836c2.399 1.6684 5.442 2.4062 8.951 2.4062v-4zm-6.626-1.6608c-1.534-1.1252-2.725-2.7834-3.512-5.1088l-3.789 1.2832c1.005 2.9653 2.63 5.3604 4.936 7.0512l2.365-3.2256zm-3.503-5.0812c-0.772-2.3931-1.183-5.3531-1.183-8.922h-4c0 3.8551 0.441 7.2524 1.376 10.15l3.807-1.228zm-1.183-8.922v-17.344h-4v17.344h4zm0-17.344c0-3.6745 0.372-6.6961 1.072-9.1064l-3.841-1.1152c-0.836 2.8804-1.231 6.3014-1.231 10.222h4zm1.066-9.0865c0.701-2.3247 1.872-3.9709 3.459-5.0847l-2.299-3.2736c-2.424 1.7022-4.069 4.1521-4.989 7.2034l3.829 1.155zm3.443-5.0734c1.593-1.0957 3.98-1.7601 7.379-1.7601v-4c-3.855 0-7.143 0.74365-9.646 2.4639l2.267 3.2962zm7.379-1.7601c3.039 0 5.264 0.52382 6.823 1.4051l1.969-3.4822c-2.366-1.3374-5.347-1.9229-8.792-1.9229v4zm6.868 1.4297c1.555 0.82723 2.698 2.1092 3.432 3.963l3.719-1.4735c-1.058-2.6689-2.817-4.7149-5.272-6.021l-1.879 3.5315zm3.437 3.9752c0.768 1.9023 1.199 4.4416 1.199 7.6991h4c0-3.5691-0.466-6.6618-1.49-9.1969l-3.709 1.4978zm1.199 7.6991v1.92h4v-1.92h-4zm2-0.08h-6.784v4h6.784v-4zm-4.784 2v-1.6h-4v1.6h4zm0-1.6c0-2.3314-0.153-4.3203-0.492-5.919l-3.913 0.83c0.258 1.2173 0.405 2.8978 0.405 5.089h4zm-0.49-5.9073c-0.37-1.7994-1.195-3.3643-2.638-4.4142l-2.353 3.2349c0.434 0.31543 0.847 0.88386 1.074 1.9858l3.917-0.8066zm-2.556-4.3512c-1.428-1.1555-3.419-1.5335-5.546-1.5335v4c1.797 0 2.665 0.34736 3.029 0.64249l2.517-3.109zm-5.546-1.5335c-2.385 0-4.571 0.54191-6.087 2.0578l2.829 2.8284c0.447-0.44679 1.376-0.88621 3.258-0.88621v-4zm-6.118 2.0896c-1.293 1.3515-2.024 3.1137-2.324 5.1178l3.955 0.5934c0.212-1.4093 0.675-2.3351 1.26-2.9463l-2.891-2.7649zm-2.33 5.1602c-0.227 1.7673-0.336 3.7535-0.336 5.9503h4c0-2.0699 0.103-3.881 0.303-5.4417l-3.967-0.5086zm-0.336 5.9503v19.2h4v-19.2h-4zm0 19.2c0 2.5544 0.175 4.7687 0.552 6.6099l3.919-0.8038c-0.305-1.4868-0.471-3.4111-0.471-5.8061h-4zm0.563 6.6577c0.454 1.9692 1.343 3.6616 2.819 4.8304l2.483-3.1362c-0.572-0.4525-1.091-1.2348-1.405-2.5936l-3.897 0.8994zm2.819 4.8304c1.503 1.1898 3.457 1.6479 5.594 1.6479v-4c-1.619 0-2.566-0.3526-3.111-0.7841l-2.483 3.1362zm5.594 1.6479c2.177 0 4.162-0.5205 5.669-1.8388l-2.635-3.0104c-0.541 0.4737-1.458 0.8492-3.034 0.8492v4zm5.669-1.8388c1.434-1.2549 2.301-3.009 2.748-5.0444l-3.907-0.8576c-0.321 1.4632-0.862 2.3545-1.476 2.8916l2.635 3.0104zm2.748-5.0444c0.425-1.9378 0.623-4.2686 0.623-6.9568h-4c0 2.5172-0.187 4.5383-0.53 6.0992l3.907 0.8576zm0.623-6.9568v-3.584h-4v3.584h4zm-2-5.584h-6.592v4h6.592v-4zm-4.592 2v-5.12h-4v5.12h4zm-2-3.12h13.12v-4h-13.12v4zm11.12-2v25.664h4v-25.664h-4zm2 23.664h-4.544v4h4.544v-4zm-2.558 1.7651-0.704-5.952-3.973 0.4698 0.704 5.952 3.973-0.4698zm-4.575-6.3871c-0.573 1.6131-1.448 2.8902-2.613 3.8843l2.595 3.0434c1.736-1.4806 2.995-3.3608 3.787-5.5877l-3.769-1.34zm-2.613 3.8843c-0.981 0.8366-2.47 1.3777-4.718 1.3777v4c2.871 0 5.393-0.6962 7.313-2.3343l-2.595-3.0434zm17.564 2.7377h-2v2h2v-2zm0-51.84v-2h-2v2h2zm7.104 0h2v-2h-2v2zm0 51.84v2h2v-2h-2zm-5.104 0v-51.84h-4v51.84h4zm-2-49.84h7.104v-4h-7.104v4zm5.104-2v51.84h4v-51.84h-4zm2 49.84h-7.104v4h7.104v-4zm8.387 2h-2v2h2v-2zm0-51.84v-2h-2v2h2zm20.096 0h2v-2h-2v2zm0 5.376v2h2v-2h-2zm-12.864 0v-2h-2v2h2zm0 17.152h-2v2h2v-2zm10.432 0h2v-2h-2v2zm0 5.12v2h2v-2h-2zm-10.432 0v-2h-2v2h2zm0 19.008h-2v2h2v-2zm12.992 0h2v-2h-2v2zm0 5.184v2h2v-2h-2zm-18.224 0v-51.84h-4v51.84h4zm-2-49.84h20.096v-4h-20.096v4zm18.096-2v5.376h4v-5.376h-4zm2 3.376h-12.864v4h12.864v-4zm-14.864 2v17.152h4v-17.152h-4zm2 19.152h10.432v-4h-10.432v4zm8.432-2v5.12h4v-5.12h-4zm2 3.12h-10.432v4h10.432v-4zm-12.432 2v19.008h4v-19.008h-4zm2 21.008h12.992v-4h-12.992v4zm10.992-2v5.184h4v-5.184h-4zm2 3.184h-20.224v4h20.224v-4zm10.574 0.656-1.093 1.6752 9e-3 0.0054 8e-3 0.0052 1.076-1.6858zm-4.48-5.312-1.822 0.825 1.822-0.825zm-1.792-7.872-0.521-1.9309-1.568 0.4234 0.092 1.6216 1.997-0.1141zm6.4-1.728 1.995-0.1392-0.169-2.4254-2.347 0.6337 0.521 1.9309zm0.832 5.312-1.94 0.4851 5e-3 0.0227 7e-3 0.0225 1.928-0.5303zm2.24 4.224-1.47 1.3566 0.014 0.0143 0.013 0.0142 1.443-1.3851zm8.512 0.064-1.472-1.3541-2e-3 0.0027 1.474 1.3514zm-0.128-10.176-1.611 1.1848 8e-3 0.0115 9e-3 0.0114 1.594-1.2077zm-4.032-4.352 1.334-1.4905-0.011-0.0092-1.323 1.4997zm-8.704-7.68 1.323-1.4997-6e-3 -0.0055-1.317 1.5052zm-3.776-4.864-1.822 0.8243 4e-3 0.0083 3e-3 0.0083 1.815-0.8409zm2.048-15.424 1.386 1.4422-1.386-1.4422zm14.272-2.304-0.679 1.8811 0.031 0.01118 0.031 0.01015 0.617-1.9024zm3.904 2.432-1.47 1.3566 0.014 0.01497 0.014 0.01468 1.442-1.3862zm2.496 4.224-1.888 0.6607 0.01 0.02879 0.011 0.02846 1.867-0.71795zm1.28 5.888 0.523 1.9305 1.626-0.4406-0.158-1.6777-1.991 0.1878zm-6.144 1.664-1.994 0.1496 0.181 2.4136 2.336-0.6327-0.523-1.9305zm-0.768-4.672-1.933 0.5118 2e-3 0.0072 1e-3 0.0072 1.93-0.5262zm-2.048-3.456-1.381 1.4467 0.034 0.03204 0.035 0.03046 1.312-1.5092zm-8.32 0.128 1.382 1.4453 2e-3 -0.0013-1.384-1.444zm-0.704 8.128-1.789 0.8944 0.015 0.0293 0.015 0.0289 1.759-0.9526zm2.624 3.136-1.332 1.4919 0.014 0.0126 1.318-1.5045zm8.768 7.68-1.318 1.5045 6e-3 0.0047 1.312-1.5092zm5.184 6.144-1.696 1.06 4e-3 0.0069 5e-3 0.0068 1.687-1.0737zm0.64 15.04 1.729 1.0052 5e-3 -0.0085 5e-3 -0.0087-1.739-0.988zm-4.416 4.224-0.927-1.7725-8e-3 0.0044-8e-3 0.0045 0.943 1.7636zm-6.4-0.528c-2.702 0-4.801-0.5776-6.412-1.6058l-2.152 3.3716c2.4 1.5318 5.293 2.2342 8.564 2.2342v-4zm-6.395-1.5952c-1.625-1.0593-2.874-2.526-3.751-4.4618l-3.644 1.65c1.171 2.5868 2.908 4.6615 5.209 6.1622l2.186-3.3504zm-3.751-4.4618c-0.904-1.9964-1.458-4.3711-1.617-7.1611l-3.994 0.2282c0.182 3.1833 0.823 6.0566 1.967 8.5829l3.644-1.65zm-3.093-5.1161 6.4-1.728-1.042-3.8618-6.4 1.728 1.042 3.8618zm3.884-3.5197c0.136 1.9461 0.43 3.8327 0.887 5.6579l3.88-0.9702c-0.397-1.5882-0.657-3.2428-0.777-4.9661l-3.99 0.2784zm0.899 5.7031c0.539 1.9617 1.423 3.6687 2.698 5.0503l2.94-2.7132c-0.773-0.8371-1.382-1.9461-1.782-3.3977l-3.856 1.0606zm2.725 5.0788c1.488 1.55 3.491 2.2149 5.731 2.2149v-4c-1.43 0-2.285-0.4018-2.845-0.9851l-2.886 2.7702zm5.731 2.2149c2.233 0 4.261-0.6169 5.698-2.1846l-2.948-2.7028c-0.441 0.4803-1.228 0.8874-2.75 0.8874v4zm5.696-2.1819c1.426-1.5499 2-3.614 2-5.8981h-4c0 1.6413-0.407 2.6065-0.944 3.1899l2.944 2.7082zm2-5.8981c0-2.6401-0.601-4.9855-2.006-6.8397l-3.188 2.4154c0.728 0.9618 1.194 2.3711 1.194 4.4243h4zm-1.989-6.8168c-1.163-1.582-2.606-3.1333-4.309-4.6577l-2.668 2.981c1.539 1.3769 2.785 2.727 3.755 4.0463l3.222-2.3696zm-4.32-4.6669-8.704-7.68-2.646 2.9994 8.704 7.68 2.646-2.9994zm-8.71-7.6855c-1.533-1.3412-2.604-2.7449-3.278-4.1997l-3.63 1.6818c0.948 2.0439 2.393 3.8828 4.274 5.5283l2.634-3.0104zm-3.271-4.1831c-0.662-1.4636-1.038-3.3618-1.038-5.7677h-4c0 2.7994 0.435 5.2959 1.394 7.4163l3.644-1.6486zm-1.038-5.7677c0-3.4022 0.962-5.7684 2.65-7.3898l-2.772-2.8844c-2.664 2.5599-3.878 6.0817-3.878 10.274h4zm2.65-7.3898c1.717-1.6503 4.139-2.5782 7.51-2.5782v-4c-4.139 0-7.647 1.1628-10.282 3.6938l2.772 2.8844zm7.51-2.5782c1.873 0 3.426 0.25422 4.697 0.71311l1.358-3.7622c-1.801-0.65044-3.832-0.95089-6.055-0.95089v4zm4.759 0.73444c1.286 0.41694 2.283 1.0533 3.051 1.8861l2.94-2.7131c-1.28-1.3859-2.885-2.3708-4.757-2.9779l-1.234 3.8049zm3.079 1.9158c0.836 0.86924 1.531 2.0159 2.05 3.4985l3.776-1.3214c-0.676-1.9308-1.645-3.6001-2.942-4.9495l-2.884 2.7724zm2.071 3.5557c0.56 1.4548 0.955 3.231 1.156 5.3578l3.982-0.3756c-0.226-2.3959-0.684-4.5449-1.404-6.4182l-3.734 1.4359zm2.624 3.2396-6.144 1.664 1.046 3.861 6.144-1.664-1.046-3.861zm-3.627 3.4449c-0.136-1.8128-0.41-3.4985-0.832-5.0486l-3.86 1.0524c0.346 1.2659 0.584 2.6949 0.704 4.2954l3.988-0.2992zm-0.829-5.0342c-0.47-1.7765-1.341-3.2985-2.669-4.4534l-2.624 3.0184c0.634 0.55178 1.129 1.3338 1.427 2.4586l3.866-1.0236zm-2.6-4.3909c-1.433-1.3679-3.369-1.8973-5.477-1.8973v4c1.476 0 2.271 0.3666 2.715 0.79071l2.762-2.8934zm-5.477-1.8973c-2.166 0-4.12 0.60237-5.608 2.028l2.768 2.888c0.56-0.53702 1.422-0.91598 2.84-0.91598v-4zm-5.606 2.0267c-1.508 1.4421-2.09 3.4605-2.09 5.6693h4c0-1.5458 0.399-2.3435 0.854-2.7787l-2.764-2.8906zm-2.09 5.6693c0 1.778 0.286 3.412 0.979 4.7984l3.578-1.7888c-0.331-0.6616-0.557-1.6303-0.557-3.0096h-4zm1.009 4.8566c0.698 1.2874 1.744 2.5084 3.051 3.6753l2.664-2.9838c-1.082-0.9665-1.785-1.8361-2.197-2.5967l-3.518 1.9052zm3.065 3.6879 8.768 7.68 2.636-3.009-8.768-7.68-2.636 3.009zm8.774 7.6847c1.801 1.5664 3.403 3.4594 4.8 5.6948l3.392-2.12c-1.59-2.5433-3.444-4.7463-5.568-6.5932l-2.624 3.0184zm4.809 5.7085c1.257 1.9756 1.927 4.3837 1.927 7.3103h4c0-3.5588-0.823-6.74-2.553-9.4578l-3.374 2.1475zm1.927 7.3103c0 2.2781-0.473 4.1433-1.339 5.668l3.478 1.976c1.267-2.23 1.861-4.8021 1.861-7.644h-4zm-1.329 5.6508c-0.877 1.5089-2.071 2.6506-3.614 3.4567l1.854 3.545c2.212-1.1566 3.962-2.8309 5.218-4.9913l-3.458-2.0104zm-3.63 3.4656c-1.499 0.8018-3.298 1.2356-5.457 1.2356v4c2.705 0 5.173-0.5476 7.343-1.7084l-1.886-3.5272z" fill="#FB4627"/>
</g>
<defs>
<filter id="a" x=".96001" y=".712" width="361.09" height="60.928" color-interpolation-filters="sRGB" filterUnits="userSpaceOnUse">
<feFlood flood-opacity="0" result="BackgroundImageFix"/>
<feColorMatrix in="SourceAlpha" result="hardAlpha" values="0 0 0 0 0 0 0 0 0 0 0 0 0 0 0 0 0 0 127 0"/>
<feOffset dy="4"/>
<feGaussianBlur stdDeviation="2"/>
<feComposite in2="hardAlpha" operator="out"/>
<feColorMatrix values="0 0 0 0 0 0 0 0 0 0 0 0 0 0 0 0 0 0 0.25 0"/>
<feBlend in2="BackgroundImageFix" result="effect1_dropShadow_2_3"/>
<feBlend in="SourceGraphic" in2="effect1_dropShadow_2_3" result="shape"/>
</filter>
</defs>
</svg>
